<svg width="21" height="12" viewBox="0 0 21 12" version="1.1" xmlns="http://www.w3.org/2000/svg" xmlns:xlink="http://www.w3.org/1999/xlink">
<title>Vector 9</title>
<desc>Created using Figma</desc>
<g id="Canvas" transform="translate(-23147 -2)">
<g id="Vector 9">
<use xlink:href="#path0_stroke" transform="translate(23148 3)" fill="#B5C5D2"/>
</g>
</g>
<defs>
<path id="path0_stroke" d="M 0.3625 -0.344375C 0.172307 -0.544578 -0.144172 -0.552693 -0.344375 -0.3625C -0.544578 -0.172307 -0.552693 0.144172 -0.3625 0.344375L 0.3625 -0.344375ZM 19.3625 0.344375C 19.5527 0.144172 19.5446 -0.172307 19.3444 -0.3625C 19.1442 -0.552693 18.8277 -0.544578 18.6375 -0.344375L 19.3625 0.344375ZM -0.3625 0.344375L 8.4125 9.58122L 9.1375 8.89247L 0.3625 -0.344375L -0.3625 0.344375ZM 10.5875 9.58122L 19.3625 0.344375L 18.6375 -0.344375L 9.8625 8.89247L 10.5875 9.58122ZM 8.4125 9.58122C 9.00388 10.2037 9.99612 10.2037 10.5875 9.58122L 9.8625 8.89247C 9.66537 9.09997 9.33463 9.09997 9.1375 8.89247L 8.4125 9.58122Z"/>
</defs>
</svg>
