<svg width="439" height="191" viewBox="0 0 439 191" version="1.1" xmlns="http://www.w3.org/2000/svg" xmlns:xlink="http://www.w3.org/1999/xlink">
<title>Group</title>
<desc>Created using Figma</desc>
<g id="Canvas" transform="translate(-20304 1257)">
<g id="Group">
<g id="Group">
<g id="Vector">
<use xlink:href="#path0_fill" transform="translate(20304 -1243.38)" fill="#00EDBF"/>
</g>
<g id="Vector">
<use xlink:href="#path1_fill" transform="translate(20599.1 -1244.11)" fill="#00EDBF"/>
</g>
<g id="Vector">
<use xlink:href="#path2_fill" transform="translate(20468.9 -1217.97)" fill="#00EDBF"/>
</g>
<g id="Vector">
<use xlink:href="#path3_fill" transform="translate(20691 -1197.9)" fill="#00EDBF"/>
</g>
<g id="Vector">
<use xlink:href="#path4_fill" transform="translate(20689.7 -1257)" fill="#00EDBF"/>
</g>
</g>
</g>
</g>
<defs>
<path id="path0_fill" d="M 143.926 89.575C 143.526 88.675 142.926 87.875 142.626 87.075C 142.226 85.975 142.226 84.775 140.726 84.575C 140.526 84.575 140.326 84.075 140.326 83.775C 140.126 82.875 140.226 81.875 139.726 81.175C 138.926 79.875 137.726 78.675 136.726 77.475C 135.626 76.075 134.626 74.575 133.426 73.375C 131.826 71.675 129.926 70.175 128.226 68.575C 127.526 67.875 127.126 66.975 126.526 66.275C 125.126 64.675 123.926 62.675 122.126 61.575C 119.226 59.775 117.026 57.275 114.526 55.175C 112.426 53.375 110.626 51.375 108.626 49.475C 107.826 48.775 106.926 48.175 106.026 47.575C 104.326 46.475 103.926 46.675 102.926 44.675C 102.726 44.375 103.626 42.775 103.926 42.675C 105.126 42.475 107.726 40.875 108.926 40.675C 111.726 40.075 114.026 39.175 116.926 37.675C 118.926 36.675 121.526 35.675 123.726 35.275C 125.526 34.875 127.426 34.475 129.226 33.975C 129.526 33.875 131.326 33.075 131.926 32.875C 133.026 32.475 134.026 31.675 135.226 31.375C 137.026 30.875 139.026 30.275 141.026 28.675C 142.626 27.475 141.326 26.875 141.026 26.675C 138.926 25.375 132.026 19.675 129.026 16.675C 128.326 15.975 121.626 10.275 120.826 10.175C 118.926 9.075 118.826 8.075 114.326 6.375C 112.226 5.575 110.026 5.075 107.826 4.475C 105.726 3.875 103.626 3.375 101.526 2.875C 100.626 2.675 99.726 2.575 98.926 2.375C 96.626 1.875 94.326 1.075 91.926 0.775C 88.626 0.375 85.226 0.175 81.926 0.0750004C 76.326 -0.0249996 70.826 -0.0249996 65.226 0.0750004C 63.026 0.0750004 60.926 0.375 58.726 0.675C 56.226 0.975 53.626 0.975 51.426 1.975C 47.326 3.675 43.326 5.675 39.726 8.175C 33.726 12.275 15.826 26.375 12.126 38.675C 11.026 42.275 10.926 45.875 11.026 49.575C 11.026 53.375 11.226 57.175 11.326 60.975C 11.326 61.675 11.026 62.475 11.226 63.175C 12.026 67.375 12.926 71.475 12.726 75.775C 12.726 76.075 12.826 76.475 12.926 76.775C 13.226 78.075 13.726 79.375 13.926 80.775C 14.526 83.775 15.026 86.775 16.526 89.575C 17.126 90.875 17.626 92.275 18.626 93.275C 20.926 95.775 23.426 98.075 26.026 100.375C 29.026 103.075 30.926 106.375 34.126 108.875C 38.726 112.575 41.726 117.375 46.726 121.275C 45.626 121.975 44.926 122.375 44.226 122.775C 41.826 124.075 42.326 123.375 39.926 124.675C 37.626 125.975 35.526 127.575 33.226 128.775C 29.426 130.875 25.626 132.875 21.826 134.875C 19.726 135.975 17.426 136.875 15.226 137.575C 12.226 138.475 11.126 138.875 8.12599 139.775C 5.82599 140.475 3.62599 141.675 1.52599 142.775C -0.474013 143.775 -0.474013 144.575 1.32599 145.975C 5.42599 149.375 7.52599 152.875 11.626 156.275C 13.826 158.075 16.026 159.775 18.326 161.375C 21.026 163.175 23.926 164.975 26.826 166.475C 29.426 167.875 32.126 169.075 34.926 170.075C 37.726 171.175 40.626 171.875 43.526 172.775C 44.926 173.175 46.326 173.875 47.726 174.175C 49.926 174.675 52.126 175.175 54.426 175.575C 58.026 176.075 61.626 176.375 65.226 176.775C 65.426 176.775 65.726 176.775 65.926 176.775C 67.426 176.775 68.926 176.775 70.426 176.675C 70.926 176.675 71.426 176.475 71.826 176.375C 73.926 175.975 75.926 175.675 78.026 175.075C 79.826 174.575 81.626 173.775 83.426 173.275C 86.026 172.475 88.726 171.675 91.426 171.275C 94.326 170.775 96.226 167.775 99.526 168.375C 100.026 168.475 100.526 167.975 101.126 167.775C 102.226 167.375 103.326 166.875 104.426 166.475C 105.126 166.175 105.926 166.075 106.526 165.675C 108.526 164.375 110.426 162.975 112.326 161.575C 114.626 159.975 116.926 158.475 119.126 156.775C 121.026 155.375 123.026 153.975 124.826 152.475C 126.126 151.375 131.526 147.575 132.726 146.175C 137.326 140.675 139.926 132.375 140.126 130.875C 140.626 127.975 141.426 125.175 142.126 122.375C 142.226 121.875 142.226 121.475 142.326 120.975C 142.426 119.475 142.526 117.875 142.626 116.375C 142.726 115.575 142.726 114.775 142.826 113.975C 143.026 112.575 143.426 111.175 143.626 109.775C 143.926 108.075 143.726 106.375 144.226 104.775C 144.626 103.475 144.826 98.175 145.326 96.875C 145.826 95.375 145.126 91.975 145.026 91.775C 144.426 90.875 144.226 90.175 143.926 89.575Z"/>
<path id="path1_fill" d="M 78.4266 137.909C 78.1266 135.909 77.8266 133.909 77.5266 131.909C 77.2266 130.009 76.7266 128.209 76.5266 126.409C 76.3266 124.809 76.2266 123.209 76.0266 121.609C 75.8266 118.709 74.2266 111.709 73.6266 110.509C 72.6266 108.509 72.3266 106.409 72.1266 104.209C 72.0266 102.809 70.9266 101.609 70.3266 100.309C 70.2266 100.409 70.2266 99.2087 70.0266 98.7087C 68.9266 96.2087 67.7266 93.7087 66.6266 91.2087C 66.5266 90.9087 66.4266 90.4087 66.5266 90.1087C 67.0266 88.6087 67.9266 87.3087 67.7266 85.5087C 67.6266 84.9087 68.1266 84.2087 68.5266 83.6087C 69.6266 81.9087 71.1266 80.4087 71.8266 78.6087C 72.8266 76.2087 73.3266 73.5087 73.9266 71.0087C 74.2266 69.6087 74.1266 68.1087 74.2266 66.6087C 74.4266 64.6087 74.9266 62.5087 74.9266 60.5087C 75.0266 57.0087 74.8266 53.6087 74.7266 50.1087C 74.5266 45.4087 72.4266 33.0087 72.0266 32.1087C 71.2266 30.2087 70.6266 28.1087 69.8266 26.2087C 69.3266 25.0087 68.8266 23.7087 68.2266 22.5087C 66.9266 19.7087 65.0266 17.4087 62.6266 15.3087C 60.9266 13.8087 59.8266 11.8087 57.9266 10.3087C 55.0266 8.00867 53.2266 5.60867 50.0266 4.60867C 46.6266 3.60867 43.2266 2.90867 39.7266 2.10867C 36.3266 1.40867 33.0266 0.408671 29.5266 0.608671C 26.9266 0.708671 24.4266 -0.0913288 21.8266 0.00867118C 18.5266 0.208671 15.1266 0.108671 11.7266 0.208671C 10.6266 0.208671 9.62661 0.508671 8.62661 0.708671C 7.92661 0.808671 0.626605 1.20867 0.626605 6.20867C 0.626605 8.60867 0.826605 11.0087 0.626605 13.4087C 0.426605 16.3087 0.626611 19.2087 0.726611 22.0087C 0.826611 25.0087 0.826593 28.1087 0.926593 31.1087C 1.02659 34.7087 1.32659 38.4087 1.32659 42.0087C 1.22659 46.8087 1.7266 51.6087 1.0266 56.4087C 0.726599 58.4087 0.426586 60.4087 0.826586 62.5087C 1.12659 64.3087 0.426586 66.2087 0.326586 68.1087C 0.126586 69.9087 -0.0734014 71.7087 0.0265986 73.5087C 0.126599 75.4087 0.726593 77.2087 0.926593 79.0087C 1.12659 80.8087 1.22659 82.6087 1.32659 84.4087C 1.42659 85.9087 1.22659 87.3087 1.32659 88.8087C 1.52659 91.7087 1.8266 94.6087 2.1266 97.4087C 2.3266 99.0087 2.82661 100.709 3.22661 102.409C 3.12661 102.509 2.72661 102.709 2.72661 102.909C 2.72661 104.309 2.8266 105.809 3.0266 107.209C 3.2266 108.909 4.62659 116.109 4.32659 117.809C 3.92659 119.809 5.32659 121.409 4.92659 123.509C 4.52659 125.709 5.72659 128.109 5.92659 130.509C 6.32659 134.409 6.42659 138.409 6.92659 142.309C 7.22659 145.009 7.92659 147.609 8.42659 150.209C 8.62659 151.509 8.52659 152.809 8.82659 154.009C 9.32659 156.009 10.7266 161.409 10.8266 162.109C 11.3266 165.509 11.7266 168.809 12.1266 172.209C 12.1266 172.409 12.4266 172.709 12.7266 172.809C 14.7266 173.709 16.6266 174.809 18.6266 175.509C 20.1266 176.009 21.7266 176.009 23.3266 176.309C 24.0266 176.409 24.6266 176.909 25.2266 176.909C 27.5266 176.909 29.8266 177.009 32.0266 176.609C 34.1266 176.309 43.4266 176.009 44.8266 174.809C 44.9266 174.709 50.3266 173.409 51.6266 172.909C 52.3266 172.609 52.9266 172.209 53.5266 172.009C 56.4266 171.009 59.4266 170.209 62.1266 168.909C 64.1266 167.909 65.8266 166.309 67.6266 164.909C 69.1266 163.709 70.4266 162.309 71.8266 160.909C 72.0266 160.709 72.2266 160.309 72.2266 160.009C 72.2266 158.709 72.1266 158.809 73.2266 158.609C 73.4266 158.009 73.4266 157.309 73.7266 157.109C 75.1266 156.109 75.1266 154.609 75.8266 153.309C 77.0266 151.009 77.5266 148.409 77.6266 145.909C 77.6266 145.109 77.1266 144.209 77.4266 143.609C 78.3266 141.809 78.7266 139.909 78.4266 137.909Z"/>
<path id="path2_fill" d="M 106.811 2.9742C 105.411 1.9742 100.911 0.774201 96.9112 0.574201C 93.7112 0.474201 90.9112 -0.225799 87.7112 0.074201C 84.1112 0.474201 80.2112 -0.2258 76.9112 1.8742C 75.8112 2.6742 75.3112 5.7742 73.3112 6.3742C 72.9112 6.4742 72.5112 6.5742 72.1112 6.4742C 70.1112 5.9742 62.2112 2.8742 60.1112 2.6742C 56.1112 2.1742 52.1112 1.9742 48.1112 1.7742C 46.3112 1.6742 44.6112 1.8742 42.8112 1.9742C 41.3112 1.9742 39.8112 1.8742 38.2112 1.8742C 37.5112 1.8742 36.8112 1.8742 36.1112 1.9742C 34.8112 2.1742 33.4112 2.7742 32.3112 2.4742C 29.0112 1.5742 26.6112 3.4742 24.1112 4.8742C 21.3112 6.3742 18.6112 8.2742 16.0112 10.0742C 14.0112 11.4742 12.2112 13.0742 10.3112 14.6742C 9.7112 15.1742 9.71119 16.3742 9.11119 16.5742C 6.01119 18.0742 6.11119 21.2742 4.91119 23.7742C 3.81119 26.0742 4.5112 28.6742 3.5112 31.0742C 2.5112 33.2742 2.41119 35.8742 1.91119 38.2742C 1.61119 39.8742 1.1112 41.3742 1.0112 42.9742C 0.811201 46.2742 0.811191 49.6742 0.611191 53.0742C 0.511191 54.5742 -0.0887994 55.9742 0.0112006 57.4742C 0.111201 59.6742 0.511197 61.8742 0.711197 64.1742C 0.811197 66.7742 5.2112 77.3742 7.0112 81.1742C 8.0112 83.1742 10.7112 86.7742 11.7112 87.2742C 13.8112 88.4742 16.0112 89.6742 18.2112 90.6742C 20.2112 91.5742 22.2112 92.4742 24.3112 92.9742C 27.0112 93.6742 42.9112 94.1742 45.6112 94.3742C 46.1112 94.3742 46.6112 94.4742 47.0112 94.3742C 49.2112 93.4742 51.5112 94.6742 53.8112 93.7742C 55.5112 93.0742 57.6112 93.2742 59.5112 92.8742C 60.6112 92.5742 73.4112 88.2742 73.6112 88.8742C 75.3112 95.9742 76.0112 95.9742 78.0112 96.8742C 81.7112 97.4742 87.1112 96.4742 90.3112 96.5742C 94.3112 96.7742 104.011 95.2742 106.811 93.7742C 107.411 93.4742 107.911 91.8742 107.611 91.2742C 106.911 90.0742 103.911 83.2742 103.711 82.9742C 102.911 81.7742 100.711 78.0742 100.411 77.0742C 100.011 76.0742 100.411 74.7742 100.211 73.6742C 99.8112 71.2742 99.3112 68.8742 98.7112 66.5742C 97.8112 63.3742 98.6112 60.0742 97.5112 56.8742C 97.0112 55.4742 97.4112 53.7742 97.1112 52.3742C 96.3112 48.9742 96.8112 25.2742 96.8112 24.9742C 97.0112 22.5742 97.2112 20.0742 97.4112 17.6742C 97.5112 16.8742 97.2112 14.5742 97.5112 12.7742C 101.511 12.2742 106.111 12.0742 107.611 11.1742C 108.111 10.8742 108.711 7.5742 108.811 6.1742C 108.711 4.0742 107.711 3.6742 106.811 2.9742Z"/>
<path id="path3_fill" d="M 51.9 49.5C 51.8 46.2 51.3 42.8 51 39.5C 50.9 38.5 49 26.5 48.8 21.9C 48.7 19.5 47.4 14.1 47.6 13.5C 46.8 12.8 47.2 10.7 47.1 10.3C 46.9 9.1 46.6 7.9 46 6.9C 45.1 5.6 39.1 2.2 38.5 2.1C 36.4 1.5 24.3 0.1 22.3 7.10543e-15C 21.8 7.10543e-15 6.5 0.9 3.6 2C 0.8 3 -6.10352e-06 7.4 -6.10352e-06 7.7C 0.0999939 14 0.100006 20.4 0.200006 26.7C 0.200006 30.2 0.200006 33.6 0.200006 37.1C 0.200006 39.4 0.200006 41.7 0.200006 44C 0.300006 46.4 0.599994 48.8 0.499994 51.2C 0.399994 53.1 1.80001 61.7 2.70001 65C 3.60001 68.2 7.1 68.7 9.6 70.1C 10.7 70.7 12.1 71.1 13.3 71.2C 15.8 71.4 25 71.4 27.5 71.4C 35.8 71.4 42.7 69 44.1 69C 47.1 69 49.6 65 51.1 61.6C 51.5 60.7 52.1 53.1 51.9 49.5Z"/>
<path id="path4_fill" d="M 8.51336 38.1C 10.4134 39.3 12.7133 40.6 15.2133 40.1C 15.6133 40 16.0133 40.5 16.4133 40.6C 18.1133 41.3 23.2133 41.6 23.8133 41.5C 25.5133 41.3 27.4134 41.4 29.0134 40.8C 31.3134 40 33.5133 38.6 35.8133 37.6C 37.0133 37.1 41.2133 31.6 42.3133 28.3C 43.3133 25.1 43.0133 17.9 43.3133 13.4C 43.5133 10.6 41.7133 9.3 40.2133 7.9C 38.6133 6.4 37.7133 4.4 35.3133 3.9C 34.1133 3.6 33.0134 3.3 32.0134 3.1C 28.9134 1.1 25.2133 -1.49011e-09 21.3133 -1.49011e-09C 16.0133 -1.49011e-09 11.3133 2 7.71334 5.4C 6.91334 5.9 6.01334 6.5 5.31334 7C 1.91334 8.9 0.913349 12.8 0.413349 16.2C -0.0866512 19.9 -0.186651 23.8 0.413349 27.6C 1.01335 33 4.71336 35.8 8.51336 38.1Z"/>
</defs>
</svg>
